<mxfile host="app.diagrams.net" modified="2024-01-20T13:17:49.868Z" agent="Mozilla/5.0 (Macintosh; Intel Mac OS X 10_15_7) AppleWebKit/537.36 (KHTML, like Gecko) Chrome/120.0.0.0 Safari/537.36 Edg/120.0.0.0" version="21.3.2" etag="JqZ39fbBXLWAWB_7sUt5" type="github">
  <diagram name="第 1 页" id="kTJ2kCoIOSNQ1rdc_BO1">
    <mxGraphModel>
      <root>
        <mxCell id="0" />
        <mxCell id="1" parent="0" />
      </root>
    </mxGraphModel>
  </diagram>
</mxfile>
